Coordinates
version=1
nRows=14
nColumns=33
inDegrees=yes

Units are S.I. units (second, meters, Newtons, ...)
Angles are in degrees.

endheader
time	ground_thorax_rot_x	ground_thorax_rot_y	ground_thorax_rot_z	ground_thorax_tx	ground_thorax_ty	ground_thorax_tz	clav_prot_r	clav_elev_r	scapula_abduction_r	scapula_elevation_r	scapula_upward_rot_r	scapula_winging_r	shoulder_elv_r	plane_of_elev_r	axial_rot_r	elbow_flexion_r	pro_sup_r	wrist_flex_r	wrist_dev_r	clav_prot_l	clav_elev_l	scapula_abduction_l	scapula_elevation_l	scapula_upward_rot_l	scapula_winging_l	shoulder_elv_l	plane_of_elev_l	axial_rot_l	elbow_flexion_l	pro_sup_l	wrist_flex_l	wrist_dev_l
      4.42000000	    -33.22894480	    -10.93261053	     14.57639134	   -102.06913555	    776.07185712	     16.67669242	      4.98747333	    -45.00000000	     45.00000000	    -45.00000000	    -11.95378573	   2064.03993615	   -477.00988273	    150.55610468	   -112.10537555	   1087.75647891	     15.63062750	     16.12105608	     13.46312868	      1.45271264	     36.26696204	    -45.00000000	    -32.06203623	     17.97322871	   -612.62878134	    792.12343821	     11.65153654	    179.99999979	   1805.82920880	    230.82572080	      7.32307510	    -14.24211535
      4.43000000	    -33.15960884	    -10.72733841	     14.41812832	    -99.16663998	    775.34954098	     16.89708126	      4.75040149	    -45.00000000	     45.00000000	    -45.00000000	    -11.58004153	   2064.20468599	   -476.99185033	    150.64602380	   -112.02308886	   1087.76202148	     16.42245600	     16.12346318	     13.42864908	      2.04596706	     35.99938497	    -45.00000000	    -31.44458806	     16.05505033	   -614.08454239	    791.96398262	     11.85122219	    179.99999979	   1805.15772115	    231.82999106	      7.08611566	    -14.34072503
      4.44000000	    -33.08880532	    -10.51190568	     14.28035834	    -96.45339285	    774.79194005	     17.14210153	      4.50326353	    -45.00000000	     45.00000000	    -45.00000000	    -11.08897041	   2064.25016125	   -477.02822709	    150.69613011	   -111.75994800	   1087.69503313	     17.24315285	     16.11130055	     13.32155527	      2.79929807	     35.68943724	    -45.00000000	    -30.88917011	     13.80854910	   -615.63432684	    791.78201178	     12.15593925	    179.99999979	   1804.47547644	    232.56085109	      6.91408270	    -14.47925464
      4.45000000	    -33.03584372	    -10.31136935	     14.11255135	    -93.92945569	    774.37911050	     17.41104875	      4.25306041	    -45.00000000	     45.00000000	    -45.00000000	    -10.59751451	   2064.25907814	   -477.08517285	    150.71216778	   -111.57632270	   1087.68747524	     18.00725535	     16.10407443	     13.20803437	      3.63836746	     35.45920167	    -45.00000000	    -30.41751575	     11.33102460	   -617.22907630	    791.68812043	     12.50513319	    179.99999979	   1803.78348272	    233.02045392	      6.77387881	    -14.62149201
      4.46000000	    -32.95202184	    -10.21469827	     14.08621738	    -91.59918153	    774.08998932	     17.69767571	      4.08049772	    -45.00000000	     45.00000000	    -45.00000000	    -10.25544257	   2064.24937291	   -477.09986337	    150.74959665	   -111.53259489	   1087.72254537	     18.60401392	     16.07376056	     13.06244052	      4.32523149	     35.11233911	    -45.00000000	    -30.04341119	      9.20253387	   -618.66570146	    791.72828919	     12.71061825	    179.99999979	   1803.10929632	    233.20935384	      6.58759256	    -14.67575153
      4.47000000	    -32.96011449	     -9.84817104	     13.72297378	    -89.44395561	    773.89238476	     17.99861257	      3.72645315	    -45.00000000	     45.00000000	    -45.00000000	     -9.49672102	   2064.32118955	   -477.18666802	    150.83608414	   -111.47767991	   1087.63908850	     19.16902875	     16.03125524	     13.00506011	      5.05226883	     35.05484440	    -45.00000000	    -29.78270126	      7.57742424	   -619.94238062	    791.61450568	     12.99319154	    179.99999979	   1802.52113532	    233.20143354	      6.49503931	    -14.79210786
      4.48000000	    -32.92284355	     -9.64520833	     13.51712192	    -87.47786723	    773.77253761	     18.30630470	      3.50048789	    -45.00000000	     45.00000000	    -45.00000000	     -9.01180444	   2064.37876754	   -477.23548488	    150.89284240	   -111.47771510	   1087.63970182	     19.60114488	     15.98425103	     12.91573313	      5.60561378	     34.87011578	    -45.00000000	    -29.51004181	      6.08516569	   -621.06020462	    791.65546944	     13.23939938	    179.99999979	   1802.08767434	    233.01793301	      6.40376298	    -14.82390874
      4.49000000	    -32.79314182	     -9.55105780	     13.48188963	    -85.65965198	    773.67694894	     18.62281756	      3.36662400	    -45.00000000	     45.00000000	    -45.00000000	     -8.73467821	   2064.45078590	   -477.22281605	    150.91509083	   -111.52769615	   1087.67370348	     19.78777706	     15.86951059	     12.82385811	      6.01746412	     34.53397678	    -45.00000000	    -29.26121111	      4.88008122	   -621.94339892	    791.67812252	     13.30099749	    179.99999979	   1801.60441366	    232.71215577	      6.25552144	    -14.82146326
      4.50000000	    -32.71840418	     -9.46818026	     13.40572984	    -83.91820048	    773.55266635	     18.95487736	      3.23623459	    -45.00000000	     45.00000000	    -45.00000000	     -8.47410881	   2064.53288193	   -477.21714066	    150.94909799	   -111.63984328	   1087.69795399	     19.67859409	     15.68282871	     12.81857674	      6.34465501	     34.31982591	    -45.00000000	    -29.07887346	      3.74445505	   -622.75773795	    791.74637676	     13.41418705	    179.99999979	   1801.22119884	    232.31105921	      6.16353166	    -14.84292300
      4.51000000	    -32.55817540	     -9.42806853	     13.59298736	    -82.20000141	    773.35110127	     19.30743908	      3.06572978	    -45.00000000	     45.00000000	    -45.00000000	     -8.27325855	   2064.60142116	   -477.10163134	    151.15570854	   -111.86738599	   1087.98306727	     19.17736251	     15.33794864	     12.87533174	      6.72137871	     33.92677907	    -45.00000000	    -28.64854591	      2.98831504	   -623.36210047	    792.06070669	     13.53276405	    179.99999979	   1801.07258513	    231.88803652	      6.06275718	    -14.76715361
      4.52000000	    -35.48996964	    -10.54978326	     11.28961254	    -88.47367904	    783.73264146	      9.45618045	      3.18468070	    -45.00000000	     45.00000000	    -45.00000000	     -8.38052927	   2065.34501492	   -478.77383184	    152.02779664	   -108.44003849	   1090.37480044	     20.14837033	     15.17305027	     11.31449757	      6.44118894	     35.66922118	    -45.00000000	    -29.35964334	      4.51476307	   -622.86904126	    791.81342040	     13.59635516	    179.99999979	   1801.05207314	    231.06911778	      5.85919505	    -14.35456816
      4.53000000	    -35.39175340	    -10.16492055	     10.68888401	    -87.48381801	    783.82193817	      9.77606903	      2.95251633	    -45.00000000	     45.00000000	    -45.00000000	     -7.57209540	   2065.68956527	   -478.44389175	    152.10084538	   -108.64847591	   1090.63469553	     20.57362755	     15.50908704	     11.65991727	      7.24154961	     34.40822927	    -45.00000000	    -28.84824008	      4.29514853	   -623.45505202	    792.08434108	     13.81530802	    179.99999979	   1800.77400527	    230.52225192	      5.65064122	    -14.26895583
      4.54000000	    -35.58725169	    -10.17197285	     10.54677827	    -86.61847146	    783.90311793	     10.06866331	      2.80667624	    -45.00000000	     45.00000000	    -45.00000000	     -7.69744639	   2065.73304813	   -478.70540108	    152.01484374	   -108.54764837	   1090.74616360	     20.84566209	     15.34434278	     11.27259480	      6.88314804	     35.05796514	    -45.00000000	    -28.95422893	      3.62681163	   -623.94054992	    792.13290392	     13.89364624	    179.99999979	   1800.64479882	    229.91619742	      5.78297004	    -14.42144384
      4.55000000	    -35.49579819	    -10.08157072	     10.43612580	    -85.85837155	    783.97246315	     10.33142332	      2.81787904	    -45.00000000	     45.00000000	    -45.00000000	     -7.21589981	   2065.75422583	   -478.61189162	    152.07166753	   -108.70763594	   1090.77424237	     20.99783526	     15.60715689	     11.55534532	      7.61098327	     34.41780319	    -45.00000000	    -28.75535574	      3.30555364	   -624.19976655	    792.07616948	     14.13713312	    179.99999979	   1800.59666472	    229.18851668	      5.65937867	    -14.28368721
